<svg width="1440" height="500" viewBox="0 0 1440 500" fill="none" xmlns="http://www.w3.org/2000/svg">
<path fill-rule="evenodd" clip-rule="evenodd" d="M748.5 125.787C803.823 135.78 907.872 228.384 945.5 248.5C971.4 262.346 1125.16 255.446 1157.5 266.5C1269.37 304.735 1268.5 335.333 1328.5 373C1328.5 373 1440 411.565 1440 378.811C1440 324.357 1440 500 1440 500C1440 500 692.023 500 616.341 500C418.619 500 199.795 500 9.53674e-07 500C-2.86667e-06 411.371 7.64069e-06 88.5477 0 9.51052C135.134 -47.5704 357.45 171.122 546.5 166.729C620.248 165.016 680.397 113.485 748.5 125.787Z" fill="#6DA6B9"/>
</svg>
